<svg xmlns="http://www.w3.org/2000/svg" viewBox="0 0 510.93 584.91"><defs><style>.cls-1{fill:#010101;}.cls-2{fill:#e64b2f;}.cls-3{fill:#fdbf44;}</style></defs><g id="Layer_2" data-name="Layer 2"><g id="Layer_1-2" data-name="Layer 1"><path class="cls-1" d="M171.08,2l4-.2L174.93,1A49.46,49.46,0,0,0,184.34.1c12.91-.16,25.82,0,38.73-.1l0,.66c2.63.09,5.27.26,7.91.41l0,.58a32.82,32.82,0,0,1,5.66,1.43c1.92.86,3.87,1.66,5.75,2.62,1.11.51,2.23,1,3.37,1.51l.25.47c1.23.74,2.41,1.57,3.6,2.38a50,50,0,0,1,9.72,9.77l.69.09-.16,1.14,1.25,0c-.08.43-.25,1.3-.33,1.74l1.25.07-.23,1.22.87,0a11.23,11.23,0,0,0,2.34,4.37c-.06.36-.19,1.07-.26,1.42l1.14.06.16,3,.92-.05c0,.78,0,2.33.05,3.11l.81-.09c.46,4.36,1.66,8.62,1.35,13,6.26.23,12.53.1,18.8.15l0,.7c3.75-.23,7.3,1.11,11,1.39v.73l3.09.09-.15.74a9,9,0,0,1,3.67,1.19l1.31-.17.28.87,2.43,1.22,1.35-.08.21.85c1.15.46,2.28,1,3.43,1.46,1.21.91,2.44,1.8,3.7,2.65,1.6,1.17,3.15,2.4,4.77,3.55V65l1.35.09a13.7,13.7,0,0,0,4.47,4.33l0,1.42,1.22-.06L329.88,72l.81.07c.86,1.24,1.76,2.47,2.58,3.76l.46.09a9.7,9.7,0,0,0,2.33,3.48c0,.28-.07.83-.09,1.1.71.92,1.43,1.84,2.15,2.75,0,.38-.08,1.13-.11,1.51l1.25.26-.35,1.75.86.22c.46,1.55,1,3.07,1.58,4.6.42,1.28.73,2.58,1.07,3.89a34,34,0,0,1,1.65,10.39c-5.45-.27-10.79,1-16.22,1.12l.33-1.19-1,.25c.06-3.14-.86-6.15-1.39-9.22l-.75.18c0-.79-.08-2.36-.1-3.15l-1.19,0c.13-.45.39-1.34.51-1.79l-1.37-.22c.07-.46.22-1.38.29-1.84l-1.35-.18c.1-.45.29-1.36.39-1.82l-1,.1-1.33-3.28-.49.12c-1.16-1.71-2.46-3.33-3.74-5l-.38,0L314,78.58l.06-.4-1.36-1A46.28,46.28,0,0,0,308,73.57l-.1-.83-1.73.37,0-1.08c-1.36-.51-2.7-1-4.08-1.49l-.1-.93-1.84.35-.2-1.35-1.85.5V67.92l-3.12,0,0-.87-4-.2,0-.75c-8.49-.5-17-.34-25.5-.36h-124c-9.16,0-18.32-.19-27.47.4,0,.19.07.58.09.78l-4.13.2.11.69c-1.71.38-3.38.9-5.08,1.34l0,1-1.77-.42L102.94,71l-1.78-.25-.23,1.33-1.82-.3.11,1.31L98,72.74l-.1.91q-1.38.67-2.7,1.47l-1.38.9.15.55c-2.18,1.18-3.66,3.21-5.36,5L87.79,83l-.88-.06c0,.37,0,1.1,0,1.46A11.54,11.54,0,0,0,84,87.34c0,.37.11,1.1.14,1.47L82.89,89c.07.45.21,1.35.29,1.8l-1.35.25c.12.44.34,1.33.46,1.77l-.93.06c-.3,1.16-.64,2.3-1,3.42s-.75,2-1.14,3c-.14,1.53-.26,3.06-.34,4.6l-.74-.11c-.27,22.46-.09,44.92-.1,67.38-4.1.19-8.27-.34-12.31.56L61.07,171c.24-11.46,1.35-23,.09-34.44,0-3,0-5.9-.07-8.84l1.41-.34-1.41-.33c0-2.56,0-5.12.14-7.67-.11-4.07-.11-8.13,0-12.2.92-3,.81-6.21,1-9.33l.72.07c.09-1.2.2-2.39.34-3.58a14.23,14.23,0,0,0,1-3.5l.49,0a7.58,7.58,0,0,1,1.31-3.51c-.07-.33-.2-1-.27-1.33l1.3-.3c-.06-.45-.18-1.33-.25-1.78l.89-.22c.45-1.17.94-2.31,1.41-3.47.57-.83,1.14-1.66,1.72-2.48.8-1.22,1.62-2.43,2.4-3.66a93.63,93.63,0,0,1,7.11-7.8,60.06,60.06,0,0,1,5-4.26c1.79-1.22,3.29-3,5.5-3.44l0-.87,1.18.26.16-.82,2.24-1a33.45,33.45,0,0,1,6.44-2.65l.14-.45A36.28,36.28,0,0,0,107.39,51c1.21-.1,2.43-.2,3.65-.28l-.08-.68c3.91.07,7.68-1.19,11.59-1.06,4.53,0,9.07,0,13.62,0,0-1.71,0-3.42,0-5.13l.65-.08c.1-1.84.23-3.67.42-5.5,1-2.22,1.54-4.59,2.39-6.85,1.33-2.77,2.2-5.9,4.47-8.09-.05-.32-.15-1-.21-1.31l1.24-.07-.2-1.19.79,0A44.35,44.35,0,0,1,148.32,17h.52c.33-.34,1-1,1.31-1.35l-.28-.89,1.24.27-.2-1.22,1.18.2-.09-.77c1.67-1.23,3.31-2.5,5-3.66L157,9.17A45.15,45.15,0,0,0,162.32,6l3.26-1.37A15.65,15.65,0,0,1,171,2.7l.07-.68m2,17-.19,1L171,19.6l-.12,1.31-1.83-.19L168.9,22l-1.35-.12c-2.66,1.95-4.74,4.55-7.37,6.52l-.08,1.45h-1.21l.21,1.2-1.25,0c.06.43.19,1.3.25,1.73l-1.29.23c.06.46.19,1.37.25,1.83l-1.29.16c.08.47.26,1.4.35,1.87l-1.38.17c.14.46.41,1.39.55,1.86l-1.17,0c-.08,1.35-.15,2.7-.22,4.06h-.77c-.06,2-.14,4.05-.2,6.08q49.95,0,99.9,0c0-.77,0-2.31,0-3.08l-.6,0a23.26,23.26,0,0,0-1.4-7.57c-.59-1.25-1.14-2.51-1.68-3.77-.77-2.1-2.49-3.59-3.45-5.56l-.44-.11a10.06,10.06,0,0,0-4.24-4.23l.07-.84L240,24l0-1.23-1.7.17-.06-1.21-1.19.22V20.72l-1.75.31-.28-1.3-1.38.18a14.92,14.92,0,0,0-6.07-2.4c-3.22-1-6.62-.76-9.94-.82-11.34,0-22.68-.1-34,.06C179.88,16.69,176.5,18,173.07,19Z"/><path class="cls-1" d="M186,24.73c11.05-.17,22.1,0,33.16-.09.77,5.46,0,10.88.08,16.35-11.09-.07-22.17,0-33.25-.05C186.07,35.53,186.05,30.13,186,24.73Z"/><path class="cls-1" d="M113.93,83.1c3.2-.54,6.36-1.47,9.65-1.28q72.46,0,144.93,0c6.52,0,13.06-.08,19.58.18l-.18.83,4.2.18v1.17l1.8-.55.17,1.3,1.43,0,2.39,1.3.19.88,1.54-.06A2.74,2.74,0,0,0,302,89.13l-.05.52L303.3,91l.5,0A2.92,2.92,0,0,0,306,93.34c0,.38-.07,1.15-.09,1.53l1.32.11-.2,1.74,1.23.23L308,98.74l1.36.24c-.11.45-.33,1.34-.45,1.79l.92.06A41.7,41.7,0,0,1,311,114c3.14.8,6.4.8,9.62,1.12a15.78,15.78,0,0,0,5.33,1v.72l3.16,0-.14.92,3,.15,0,.72c3.7.61,6.71,3.06,10.16,4.39V124l1.72-.42.08,1,2.8,1.46c1.64,1.41,3.3,2.79,5,4.12l1,.89a21.82,21.82,0,0,1,4.56,4.74h.42l1.31,1.36L359,138l1.18-.11-.27.88,1,.33.31,1,1-.35-.29,1.28.89-.22,1.31,1.37-.19.85,1.2-.17-.22,1.19,1.21-.11c0,.34.11,1,.15,1.35,4.64,3.19,7.33,9,12.67,11.06l.08-1.15,1.24-1.05c.78-.86,1.56-1.73,2.33-2.6q1.54-1.6,3.2-3.1,1.81-2.06,3.79-4c5.38-5.29,10.33-11,16.11-15.91l1.1-.85a33.94,33.94,0,0,1,2.87-2.14l1.58-.79-.11-.94,1.91.21.14-1.29,1.73.22.25-1.28,1.79.27.19-1.3,1.8.3.22-1.28,1.39.18c3-1.88,6.58-2.47,9.86-3.71,8.6-1.93,17.5-1.88,26.24-1,2.78.77,5.59,1.43,8.44,1.95v.5c1.14.25,2.29.52,3.43.82l3.07,1.47,1.37-.15.19,1.31,1.81-.31.22,1.32,1.74-.31.05,1,3.22,1.32,0,1,1.67-.27.08.85c1.71,1.16,3.37,2.42,5.06,3.62l0,.7,1.06-.1.1.7a30.16,30.16,0,0,1,6.19,6.22l.73.09-.1,1.09.74.11c.86,1.24,1.75,2.46,2.56,3.75l.49.09c.47,1,1,2,1.45,3l.59,0c.43,1.06.86,2.11,1.3,3.16l.88.07c0,.45-.13,1.35-.17,1.8l1.32.25c-.11.43-.31,1.3-.42,1.74l1,.07c.48,1.66,1.05,3.29,1.52,5l.71,0c0,.78.07,2.34.1,3.12l.71-.11a64.28,64.28,0,0,1,1.49,8l.64,0c.05,2,.16,4.07.22,6.1l.75-.13q.08,7.56,0,15.11l-.75-.13c-.07,2-.18,4.05-.26,6.09h-.78c0,1.35-.08,2.7-.11,4.06l-.84-.11c-.08,1.35-.15,2.71-.22,4.07l-.71-.09a8.41,8.41,0,0,1-1.21,3.61c0,.35.08,1.05.11,1.4l-1.27.18c.09.44.27,1.32.35,1.76l-1.26.27.28,1.77-1.26.24c.06.44.19,1.32.25,1.77l-1.27.22.24,1.75-1.33.2c.07.44.2,1.33.26,1.77l-1.23,0,.29,1.18-.9,0c-.49,1-1,2.05-1.44,3.08l-.46,0c-1.21,1.66-2.5,3.26-3.7,4.92l-.81-.08.21,1.17-.78-.12L491,229.21l.12.75-1.15-.07.13,1.16-1.2-.25.24,1.23-.84-.2-1.31,1.4.17.8-.83-.05a20.81,20.81,0,0,1-3.85,4.26c-2.94,3.14-6,6.15-9,9.22a11.5,11.5,0,0,0-1.93,2.31L469,250l.14-.83c-.32-.25-1-.74-1.31-1l-1.62-1.55c-2.56-2.41-5.19-4.74-7.69-7.2,7.17-7.49,14.24-15.09,21.52-22.48a51.92,51.92,0,0,0-1.81-73.24,46,46,0,0,0-32.65-12.9c-11.77-.18-23.32,4.72-31.93,12.65-8.86,8.51-16.9,17.81-25.63,26.44-2.78,2.7-5.35,6.27-9.44,6.87-3.08.34-5.71-1.57-7.73-3.64-10.18-10.51-20.36-21-30.81-31.28a47.21,47.21,0,0,0-42.56-9.48c-18.4,4.73-32.65,21.36-35.46,40a110.65,110.65,0,0,0,.19,20c1.9,6.11,3.93,12.32,7.66,17.6,5.57,8,13,14.36,19.63,21.38,9.41,9.27,18.17,19.17,27.55,28.48,12.71,12.64,24.73,25.95,37.49,38.54,7.91,7.77,15.22,16.11,23.09,23.9,14.73-14.21,28.38-29.48,42.9-43.9,8.91-8.75,17.14-18.16,26.07-26.89,2.25,1.91,4.43,3.92,6.6,5.94l.62.56q2.11,1.86,4.22,3.76c0,.53.1,1.59.14,2.13l-1.19-.08.11.79-1.32,1.31-.4.14a33.31,33.31,0,0,1-2.87,3.29c-.71.65-1.39,1.33-2,2-6.57,6.86-13.69,13.28-19.78,20.56l-.79-.09.18.82-.95.35-.26,1-.89-.23.15,1.17-1.15-.14.07.76-1.33,1.31-.75-.06.18,1.15-1.15-.12.17,1.15-1.14-.14,0,.74L421.78,301l-.43,0a32.87,32.87,0,0,1-4.93,5.28c-5.68,5.79-11.17,11.81-17.21,17.21l-.12,1.39-.86-.13-1.33,1.37.23.83-1.2-.18.07.76-1.31,1.36-.35,0L393,330.21l.06.37c-.33.34-1,1-1.31,1.35l-.76-.06.19,1.19-1.2-.22.19,1.21-1.22-.24.22,1.22-1.23-.19.33,1-1,.26-.35,1-.77-.06c-.11,46.33.17,92.68-.15,139l-.66-.07a6.64,6.64,0,0,1-1.29,3.54c0,.25,0,.75,0,1-2.06,2.54-4.13,5.25-7.12,6.75v.86l-1.38-.24c-1.22,1.21-3,1.11-4.54,1.31l.12.73c-31.72,0-63.43,0-95.15,0l.07-.67c-2.58-.08-4.81-1.37-7-2.49l-.13-.48a13.29,13.29,0,0,1-4.12-3.85c-1.55-2.22-2.95-4.65-3-7.43l-.65,0c0-6,.06-11.92-.06-17.88-4,0-8,.06-12-.26l0-.69c-1.48-.52-3.12-1.44-3.28-3.19h-.71c-.1-1.34-.18-2.67-.26-4h-.64c.15-9.11.07-18.22,0-27.32l-3.76.64c-1.61.49-3.24.9-4.85,1.35-2.56.43-5.09,1.05-7.66,1.43-.16,18.82,0,37.65-.08,56.47a19.23,19.23,0,0,1-.92,4.13c-1,1.22-2.12,2.38-3.25,3.51l-1.59-.35-.08,1.06c-12.56,0-25.12.11-37.68-.06l-2.9-1.29a12.15,12.15,0,0,0-2.43-2.1c0-.37.11-1.09.15-1.45l-1.1,0c-.38-19.93-.05-39.87-.17-59.81-5.64-1-11.15-2.63-16.8-3.51,0,10.13.18,20.26-.13,30.39l-1.13.09c.09.42.29,1.26.38,1.68l-1.19.12,0,1.13-1.17-.13,0,1.32-1.76-.47,0,1.19q-20.06.42-40.13,0l-.07-1.13-1.48.09a23.8,23.8,0,0,1-3.28-5.36q0-22.75,0-45.52c-1.26-.46-2.51-.92-3.77-1.36a27.37,27.37,0,0,0-5.35-2.06l-.11-.86-1.36.13-2.37-1.29,0-.8-1.21.24-.09-1.21-1.38.26c-.88-.7-1.77-1.39-2.65-2.07l-1.09-.83c-.81-.5-1.62-1-2.41-1.53l-1.44-.82.08-.5a55.54,55.54,0,0,1-6.56-5.8,38.55,38.55,0,0,1-4.71-5.66l-.45.16c-.82-1.36-1.65-2.71-2.44-4.08l-.54,0A8.8,8.8,0,0,0,71,373.39l0-1c-1.93-2-2.56-4.76-4.15-7l.32-1.4-.94-.12c-.73-3-2.19-5.88-2.52-9l-.7,0L63,350.8l-.81.13c-.72-7.75-.09-15.56-1-23.27.22-3.74-.59-7.61.43-11.26-1-7.52-.26-15.28-.35-22.89-.18-6.11-.09-12.23-.09-18.33l.76-2.08-1.6-.7,1.58-.7c-1.64-3.57-.37-7.73-.72-11.54a8.35,8.35,0,0,0,0-4.57c-.68-9.33,1.43-18.68,0-28,0-6.16,0-12.31,0-18.46a12.48,12.48,0,0,0,0-6.56c0-4.18.07-8.36-.08-12.54.25-.76.5-1.51.76-2.26,5.38.12,10.77,0,16.15,0q-.1,66.27,0,132.53c0,8.47-.15,16.95.27,25.42l.7,0c.06,1.22.16,2.43.28,3.66a11.79,11.79,0,0,1,1,4.39l.6,0c.44,1.67,1,3.32,1.4,5l1,.08-.48,1.81,1.36.19c-.06.46-.2,1.38-.27,1.84l1.36.21c-.1.45-.29,1.35-.39,1.8l1-.09c.45,1.09.91,2.18,1.38,3.28l1-.13c-.06.47-.17,1.42-.23,1.89l1.92.27c0,.45,0,1.34-.06,1.78l.84.15a29.67,29.67,0,0,0,2.77,3.45A22.07,22.07,0,0,0,97,378.22l0,.82,1.18-.25,0,1.25,1.83-.07c.06.47.17,1.4.23,1.87l1.87-.11.15.95,2.26,1.2.78-.09V385l1.71-.22.28.88,2.37,1.21,1,.06,4,2.09.94-.14a7.62,7.62,0,0,0,3.63,1.25v.67l3,.13.08,1.11,1.38-.27,2.37,1.58.08,1.52,1.31.13-.48,1.75,1.08.1c0,14.67,0,29.34,0,44,5.47,0,11,0,16.43,0,0-10.17-.07-20.35,0-30.52a42.92,42.92,0,0,0,.85-4.47l1,.06,0-1.52,2.36-1.67,1.35.34.05-1.16q3,0,6.11,0l-.09.86,2.64.28c1,.37,2,.73,3,1.08a29.68,29.68,0,0,0,7.47,1.94l-.07.7,4.07.19-.09.81,5,.24v.73c2,.1,4,.22,6,.3l0,.68c1.7.06,3.41.16,5.13.24l0,1.05,1.37-.25,2.11,1.61c2.87,4.13,1.09,9.36,2,14a85,85,0,0,0,0,14c-.65,10.78,0,21.61-.34,32.41l.81.1-.16.87c5.35-.18,10.72-.09,16.08-.06.11-19.3,0-38.61.05-57.91l.64.08c.17-2.1,1.77-3.48,3.12-4.88,2.42-1,5.05-1.22,7.58-1.79a20,20,0,0,0,6-1.1c1.21-.11,2.44-.2,3.66-.26l-.05-.69c4.87-.22,9.33-2.35,14-3.42l0-.66,3.87-.34,0-.85q3,0,6.12.09l.11.58c1.72,1,3.61,2.13,4.16,4.19l.65,0c.23,11.37.09,22.74.1,34.11,5.59.07,11.2.05,16.8,0-.06-13.51,0-27,0-40.52.1-1.71-.22-3.71,1.11-5.05l0-1.23,1.2,0-.13-1.19,1.23.24-.09-1.37,1.82.53V391l3.16-.08,0-.91,3-.08V389l3-.13,0-.69a15.79,15.79,0,0,0,5.45-2.37l1.39.21-.05-1.25,1.26.32,0-1.24,1.75.17.11-.92,3.1-1.43-.09-1,1.51.11a3.09,3.09,0,0,1,2.39-2.2l0-1,.94.35.3-1,1-.34-.23-.89,1.21.21-.12-.79c.33-.32,1-1,1.33-1.3l.37,0c1.21-1.64,2.48-3.24,3.68-4.9l.43-.06,1.5-3.07,1-.05c-.13-.43-.38-1.3-.51-1.74l1-.07,1.08-2.21c5.9-10.48,6.92-23,5.82-34.8,5.52-.6,11.08-.14,16.62-.28,0,10.26.6,20.81-2.88,30.65-.53,1.84-1.12,3.67-1.63,5.52l-.49.1c-.61,2.89-2.37,5.33-3.43,8H335c.06.47.19,1.41.25,1.88l-1.36.12.32,1.76-.9.21c-1.32,2.42-3.21,4.46-4.59,6.85l-.81,0,.15.83c-2.56,2.62-4.88,5.52-7.87,7.67l-.05.79-1.13-.25-.07.79a39,39,0,0,0-4.2,3.15l-4.18,2.86-2,1.29-1.39-.08L307,400l-1.86-.09-.16,1.23-1.86-.33-.19,1.27-1.73-.29-.34,1.23-1.33-.13a19.79,19.79,0,0,1-4.07,1.6c-.18.33-.56,1-.74,1.34h-.56c0,15.68.4,31.38-.24,47.05l-.69-.08a12.17,12.17,0,0,1-2.08,3.06C287,457.73,282.37,457,278,457c-.1,5.24-.12,10.48,0,15.72l2.4.95q39.58,0,79.18,0c3.23,0,6.58.36,9.68-.81.29-43.82,0-87.65.14-131.48-.17-1.86.4-4.27-1.35-5.53-4.57-4.4-8.89-9.05-13.42-13.49A49.67,49.67,0,0,1,349.7,317l-.77,0,.06-.74-1.27-1.37L347,315l0-1.12-1.13.08.2-.8-1.24-1.08-1.93-1.48.22-.89-1.21.26.23-.86-1.32-1.31-.47,0a5.47,5.47,0,0,0-2.18-2.24l-.08-.76-.73-.06a43.77,43.77,0,0,0-2.89-3.32c-1-.94-2-1.88-3-2.83-3.84-4.23-8.06-8.1-11.93-12.3a24.18,24.18,0,0,1-3.89-4.2l-.81,0,.13-.75-1.31-1.37-.78.12.15-1.2-2-.17c.06,21.74.31,43.5-.15,65.24l-.59.06a37,37,0,0,1-1.44,7l-.73-.05c-.05.76-.16,2.26-.21,3l-1.09,0,.24,1.86-1.21.09.26,1.29-1.3-.19c.08.37.23,1.11.3,1.48-1.75,2.06-3.57,4-5.37,6.05-1.63,1.42-3.22,2.87-4.9,4.23a10,10,0,0,0-3.24,2.34l-1.41-.23-.22,1.3-1.82-.29-.25,1.29-1.34-.27a5.9,5.9,0,0,1-3.51,1.31l0,.67-3,.12,0,.92-3,.05.14.95-3.17,0,.14,1-3.11,0,.09.92-3.11.07.09.94-3.08.08.14.92-3.18.08.07.7a35.73,35.73,0,0,0-7.31,2c-2.71.94-5.41,1.9-8.16,2.71q-1.71.45-3.42.84l-.06.44a16.07,16.07,0,0,0-3.48,1.12L237,389l0,.84-3.1,0,0,.89-4.08.16.17.84-5.17.22.3.81c-2.08.07-4.17.16-6.24.21l.1.73c-9.49.48-19,.61-28.49.18-6.29-.53-12.41-2.16-18.6-3.27l.12-.55c-3.64-.34-7-2-10.42-3a38.51,38.51,0,0,1-6-2l-2.56-.3v-.84l-3.06-.09,0-.9-3-.09.08-.94-3.14,0,.06-.92-3-.06.08-.93-3.09-.06L138,379l-3-.09V378l-3-.11,0-.89-3.12-.05.18-.77c-3.08-.2-5.83-1.67-8.76-2.48-2.15-1-4.28-2-6.45-3l0-.87-1.39.16a25.41,25.41,0,0,0-4.35-3.32l0-.85-1.19.22.12-1.27-1.89,0c0-.45,0-1.34,0-1.79L104,363l.09-1.11-.76-.11a45,45,0,0,1-2.54-3.76l-.89-.23c.07-.42.2-1.28.26-1.71l-1.25-.22c0-.46.13-1.36.17-1.82l-1.32-.14.44-1.84-.91-.1a50.1,50.1,0,0,0-2.06-6.43c-.22-2.42-.07-4.93-1.06-7.21l1-2.2-.92-.19c.12-3.51,0-7,.15-10.55v-2.93c-.15-5.68-.15-11.38,0-17.07v-2.92a109.19,109.19,0,0,1,0-11.3l.91-.74-.91-.74c-.27-7.42-.14-14.87,0-22.29v-2.93c-.16-8-.13-16.05,0-24.07-.33-2.34.8-4.65,0-6.91.29-2-1-4.82,1-6.06l-.92-.74c-.22-10.83-.21-21.7,0-32.52l.93-.74-.93-.74c-.23-5.5-.22-11,0-16.53l1-.73-1-.73c-.2-7.17-.22-14.37,0-21.53l.91-.74-.91-.74c-.24-4.5-.22-9,0-13.53l1-.73-1-.73c-.18-5.82-.27-11.69,0-17.5l.77-.76c-2.24-3,0-7.37-.46-10.93.15-1.43.3-2.87.41-4.3.59-1.28,1.19-2.54,1.85-3.78,0-.35-.14-1.06-.18-1.41l1.35-.23L97.79,96h1c.47-1.07.95-2.14,1.44-3.2l.56.24L102,91.61l-.2-.83,1.25,0c0-.45.08-1.34.11-1.79H105l0-.89a19.14,19.14,0,0,0,4.44-3.27l1.42.33L111,84l3.06-.2-.1-.73m-1.73,22.42c-1.17,2.81-1,5.9-1.07,8.88.05,8.15,0,16.31,0,24.46,49.43,0,98.88.25,148.31-.12,8.78-10.74,20.8-19.38,34.55-22.19.1-4.13.84-8.64-1.26-12.43A13.23,13.23,0,0,0,281.56,98Q203,97.95,124.47,98a13.29,13.29,0,0,0-12.27,7.51m-1,49.57c-.13,49,0,98-.09,147q91.55,0,183.1,0,0-19.86,0-39.72c-.05-1.49.08-3.41-1.72-3.89-2.21-2.48-4.56-4.83-7-7.12L284,249.59l-.05-.42-1.21-1.39-.52.21-1.41-1.22.25-.87-1.16,0,.2-.87-1-.26-.25-1-.9.19.12-.81-1.25-1.37-.8.15,0-1.12h-.8a3.26,3.26,0,0,0-2.15-2.21l0-.8h-.78a7.44,7.44,0,0,0-1.89-2.28c-3.2-3.55-7-6.6-9.84-10.45l-.76-.12.24-1.14h-.79c-.83-1.18-1.7-2.32-2.54-3.47A32.56,32.56,0,0,0,254,216.4c0-.24,0-.72,0-1-1.86-2-2.6-4.72-4-7,0-.25,0-.75,0-1-1.93-3-2.36-6.67-3.77-9.91-.16-1.57-.27-3.14-.32-4.71l-.74.16c-.55-10.58-1.05-21.39,2.16-31.64a27.44,27.44,0,0,0,2-6.24q-69,0-138,0m-.12,163.63c.7,9.86-1.94,20.61,3.16,29.66,4,7,11.72,10.38,19.22,12.19,1,.35,2,.71,3,1.08l2,.46c3.22,1.51,6.73,2.18,10,3.45,9.34,2.92,18.56,6.2,27.93,9,1.33.31,2.68.64,4,1a100.18,100.18,0,0,0,46-.36c10.64-2.78,21-6.55,31.46-10,6.24-2,12.49-3.94,18.7-6a28.41,28.41,0,0,0,10.83-5.82c3.63-3.78,6.62-8.62,6.66-14,.19-6.91,0-13.82.07-20.72C233.16,318.72,172.14,318.63,111.11,318.72Z"/><path class="cls-1" d="M156.09,180.61l1.8.51V179.9c13.39-.11,26.8-.2,40.19,0l-.09.73a6.15,6.15,0,0,1,4.36,5.22l.61-.07c-.07,6.1,0,12.2,0,18.3q8.87,0,17.74,0c1.23.47,2.47.94,3.71,1.43.23.34.69,1,.93,1.37l.88-.18-.26,1.25h1.25c0,.33-.11,1-.14,1.3,1.19,1.82.83,4,.89,6.09q0,15.57,0,31.16a40.87,40.87,0,0,1-3.34,5.38l-1.47-.24,0,1.19c-6.69.26-13.38.12-20.07.13-.14,6.29,0,12.59-.08,18.89l-1.12.12c.07.34.23,1,.3,1.36l-1.63,2-1.78,1.31a15.26,15.26,0,0,1-5.24,1c-11.37,0-22.73-.05-34.1,0a26.18,26.18,0,0,1-5.24-3.31c0-.27-.08-.79-.1-1.05-1.28-1.39-1.11-3.3-1.16-5,0-5.11,0-10.21,0-15.32-6.49-.26-13.06.45-19.49-.38l-.93-.78-1.39.33.1-1.33-1.24.11.16-1.22h-1.32c.12-.44.37-1.31.49-1.75L128,248c-.34-11.18-.07-22.36-.17-33.53.15-2-.37-4.37,1.16-6,0-.26.1-.76.13-1a8.52,8.52,0,0,0,2.35-2.13c6.91-2.24,14.3-.57,21.43-1.26-.08-6.41-.16-12.83.09-19.24l1.18,0c-.11-.43-.32-1.3-.43-1.74h1.31l-.17-1.24,1.26.25-.08-1.39m13,35.33c-1.29,1.25-2.57,2.5-3.87,3.74-1.21.32-2.42.65-3.62,1-5.55.11-11.09,0-16.64.07-.27,3.66-1.3,7.42,0,11l-1,.32a12.41,12.41,0,0,1,1.09,4.8c7.14.55,14.76-1.43,21.55,1.41,1,1.71,2.52,3.27,2.63,5.34.45,5.83-.38,11.7.46,17.51,5.51-.33,11,.57,16.52,0,0-5.83-.26-11.68,0-17.5.74-3.75,4.39-7.11,8.35-6.79,5.51-.09,11,0,16.52,0,.1-5.36,0-10.72,0-16.07-5.2-.11-10.39,0-15.58,0-4.56.25-9.55-3.43-9.39-8.27-.14-5.51,0-11-.07-16.52-5.37,0-10.73.09-16.1-.06C168.51,202.48,169.77,209.27,169.05,215.94Z"/><path class="cls-1" d="M348.34,189c4.61-2.61,9.9-.25,12.48,4,9.64,16,20.12,31.49,29.95,47.38a3.31,3.31,0,0,0,2.84,1.93c.44-1.67,1-3.31,1.57-4.94a34.49,34.49,0,0,0,2-5,35.09,35.09,0,0,0,2-5c.75-1.61,1.46-3.24,2.05-4.91,1-2.25,1.95-4.49,2.89-6.75,1-.86,2-1.7,3.07-2.53,1.08-.28,2.16-.58,3.25-.89,14,0,28.1-.29,42.12.14.16,5.5.72,11.13-.35,16.56-12-.15-24-.18-35.94,0-.49,1.55-1,3.09-1.54,4.64-.54,1.23-1.06,2.48-1.58,3.72-.89,2.38-1.85,4.73-2.95,7a23.92,23.92,0,0,1-2,5c-.62,1.71-1.28,3.4-2,5.07a44.68,44.68,0,0,1-2.06,5,51.19,51.19,0,0,1-3.34,7.49,19.79,19.79,0,0,1-6.3,3.05,12,12,0,0,1-8.44-5.86l-.26-1c-1.24-1.65-2.4-3.35-3.54-5.06-8.64-14.14-17.93-27.88-26.55-42l-.82-.09,0-2c-.84,0-1.66.05-2.48.09a18.92,18.92,0,0,1-1.43,3.53v1.27l-1.19.27c0,.34.08,1,.11,1.38-2.93,4.09-4.47,9-7.26,13.12-1.51,2.37-4.46,3.37-7.15,3.34-8.17,0-16.33,0-24.48,0-.06-5.37,0-10.74-.06-16.11,6.27,0,12.54-.19,18.8.11,3.89-3.5,4.93-9.17,7.88-13.44a33.72,33.72,0,0,1,3.19-6c0-.26.08-.79.11-1.06,1.58-2.16,2.45-4.73,4-6.92,0-.28,0-.84,0-1.12A30.64,30.64,0,0,1,348.34,189Z"/><path class="cls-1" d="M227.89,269.66c16.68,0,33.36-.07,50,.06-.08,5.38,0,10.75,0,16.13-16.65.07-33.3,0-50,0C227.86,280.48,227.92,275.07,227.89,269.66Z"/><path class="cls-1" d="M.13,508.92c5.37-1.16,10.89-.4,16.33-.62,7-.21,14.19.18,20.35,3.76l.13.46,1.37,1.24.43-.12a32.79,32.79,0,0,1,6.18,9.41c.38,2.82.51,5.67.64,8.52.71-6.43.39-12.89.5-19.33,0-1.53.64-3.68,2.5-3.72a80.51,80.51,0,0,1,12-.08,3.75,3.75,0,0,1,3,1.79c.46,18.86.08,37.74.12,56.61q8.37.07,16.74,0A12.14,12.14,0,0,1,85.93,568a21.43,21.43,0,0,1,.69-4.72c.71-3.65,1.15-7.35,2.07-11a28.08,28.08,0,0,1,1.07-6c.19-1.51.33-3,.44-4.53l.61-.06a23.08,23.08,0,0,1,.9-6.41c.32-3.53,1.4-6.94,1.55-10.49l.6-.1c.08-1.65.18-3.3.27-5l.68-.08a22.89,22.89,0,0,1,.9-6.33c.23-1.48.45-2.93.65-4.4a68.12,68.12,0,0,1,20.41,0c.19,1.13.39,2.26.6,3.4,1.07,5.76,2.4,11.51,2.84,17.37l.64.08c.1,2.15.06,4.36.91,6.39.16,1.5.3,3,.4,4.53l.64.07a18.78,18.78,0,0,0,.89,6.4c.21,1.7.38,3.41.6,5.13a25.42,25.42,0,0,1,1,6c.93,3.94,1.31,8,2.24,12a50.47,50.47,0,0,0,1.13,6,29.17,29.17,0,0,1,.41,7.58,98.37,98.37,0,0,1-16,0,20.81,20.81,0,0,1-1.51-7.22c-3.48-.09-6.95-.1-10.42,0-.1,1.64-.19,3.28-.21,4.94a4.19,4.19,0,0,1-4.48,2.54c-14-.17-28,.08-42,0-2.68-.1-5.52.31-8-.8a22.58,22.58,0,0,1-.46-6c.07-14.93-.06-29.86.07-44.78-1.63,1-1.1,3-.94,4.57.58,3.77-1.7,7.07-3.36,10.25A22.14,22.14,0,0,1,35,554.05l-.09.47c-1.14.45-2.27.93-3.4,1.4-1.31.53-2.63,1-3.93,1.59-3.26.23-6.54.26-9.81.23-.51,8.59.93,17.38-.83,25.84-4.12.7-8.32.51-12.47.47a5.5,5.5,0,0,1-3.8-1.17l-.55-.19c-.16-24.59,0-49.18.06-73.77m17.65,16.63c-.16,5,0,10-.13,15,2,0,4.08,0,6.12.1a22.45,22.45,0,0,0,2.58-2l.89-.06c0-.32-.07-1-.09-1.29,1.65-3.24,2-8.35-.86-11.07-2.73-1-5.67-.75-8.51-.76M106.53,548a111.91,111.91,0,0,0-1.88,12.08l3.63,0q-.25-3-.63-5.93C107.2,552.11,106.93,550,106.53,548Z"/><path class="cls-1" d="M134.45,515.17c7.61-9.11,22.52-10.3,31.34-2.28,3.6,3.32,6.73,7.5,7.66,12.41.75,5.09,1.29,10.61-.26,15.58-4.88-.09-9.75,0-14.62-.06.21.34.65,1,.87,1.35a27.75,27.75,0,0,1,10,7.11c4.4,4.79,5.42,11.8,4.12,18-.43,1.28-.82,2.58-1.24,3.88a31.1,31.1,0,0,1-3.44,5.31,25,25,0,0,1-2.38,2.56c-4.25,3.43-9.46,5.92-15,5.85-8.85.19-17.18-5.58-21-13.42-2.62-5.13-1.86-11.14-1.46-16.67,5.38-.21,10.76-.17,16.14-.08l-.21,1.08,1.08,0c.2,4.09-1.06,9.46,3.35,11.8l3.31.11a21.74,21.74,0,0,0,3.46-3.25c-.08-1.44.16-2.93-.31-4.3a35,35,0,0,0-4.21-3.28c-1.06-.48-2.1-1-3.14-1.46-2-1.24-4.08-2.19-6-3.41a28.7,28.7,0,0,1-4.81-3,24.56,24.56,0,0,1-6.49-7.6q-1-2.58-2-5.11c-1.25-7.38-.43-15.74,5.3-21.15m14.92,9.56-1.9,1.52-1.23,1.93c-.06,1.52-.1,3.06-.15,4.6l1,.13c-.1.42-.31,1.27-.41,1.7l1.26,0v1.14l1.12-.08.07,1.19,1.67-.28.09.89a25.24,25.24,0,0,0,6.14,2.56c-1.87-4.62.43-9.92-2.12-14.31A10.49,10.49,0,0,0,149.37,524.73Z"/><path class="cls-1" d="M177,508.64a115.86,115.86,0,0,1,16.56-.15c3,3.44,5.23,7.46,8,11.1l1.18.38.61-.89c1.41-2.32,3-4.53,4.54-6.75,1.11-1.62,2.23-3.87,4.5-3.89a101.68,101.68,0,0,1,13.18.07c2.46.11,2.6,2.86,2.53,4.74-.11,23.47.16,47-.14,70.42a67.86,67.86,0,0,1-16.85-.1c0-.42,0-1.25-.07-1.66-.2-14.44-.11-28.88,0-43.32l-1.63,0-1.05,1.91c-2.06,2.45-3.47,8.08-7.51,6.76-2.21-3.26-4.71-6.34-6.64-9.78-.33,15-.17,29.94-.3,44.91L192.62,584a128,128,0,0,1-14-.13c-1.32-.08-1.76-1.52-2.52-2.33.23-23.12,0-46.24.19-69.35A27.51,27.51,0,0,1,177,508.64Z"/><path class="cls-1" d="M234.26,517c6.83-9.71,21.47-12.71,31.2-5.57a25.08,25.08,0,0,1,5.9,6.13l.46.13a30.12,30.12,0,0,1,2.54,6l1.25.08c.3-1.21.62-2.42,1-3.6a39.48,39.48,0,0,1,4.75-6.16c7.94-8.08,21.92-8.85,30.37-1.16,2.33,1.74,3.83,4.28,5.55,6.58,3.39,6.49,3.36,14.33,2.06,21.35-4.75,0-9.51-.05-14.26.08,2.41,3,6.38,4,8.88,6.88a20.36,20.36,0,0,1,5.88,10.41,59,59,0,0,1,0,8.09c-.69,2-1.34,4-2,6-1,1.35-2,2.7-2.92,4.1a25.65,25.65,0,0,1-2.43,2.57c-4.73,3.9-10.78,6.48-17,5.8-7.61-.38-14-5.45-18.24-11.49a48,48,0,0,1-1.65-4.57l-1.24-.06c-.32,1.11-.65,2.22-1,3.34-.53.79-1.05,1.58-1.56,2.39a35.55,35.55,0,0,1-6,6.34h-.4c-8.09,6.32-20.35,5-27.73-1.83a15.77,15.77,0,0,1-2.43-2.54c-.93-1.38-1.93-2.7-2.9-4-.52-1.43-1.07-2.84-1.62-4.24a23.68,23.68,0,0,1-.73-5.91c-.19-11,.23-22,.13-33.06-.13-3.15,1-6.14,2.15-9,.72-1,1.44-2,2.06-3.12m61,7.7a20.38,20.38,0,0,0-3.08,3.35c0,1.58,0,3.17-.07,4.77l1,0-.36,1.69,1.25.1-.05,1.13,1.13-.09.13,1.18,1.67-.23.05.87a45.78,45.78,0,0,1,5.35,2.75c-.58-4.77,1.15-10.11-1.46-14.43-.53-.27-1.58-.83-2.1-1.11l-3.47,0m-46.1.87a46.07,46.07,0,0,0-1.92,4.52c.05,10.42,0,20.84,0,31.27a9.32,9.32,0,0,0,3.87,6.42,15,15,0,0,0,4.81-1.11c.74-1.43,2.08-2.69,2.06-4.39.3-10-.23-20-.05-30.06a7.78,7.78,0,0,0-3.33-7.64,17,17,0,0,0-5.47,1m27.12,11.72c-.89,5.77-.47,11.61-.48,17.42,5.08-.19,10.15,0,15.23-.09,1.83,2.86.85,6.4,1.18,9.59l1.32,2,2,1.35,3.09.09,2-1.35,1.42-2c0-1.52,0-3,0-4.52h-.81a22.77,22.77,0,0,0-3.66-2.92c-1.06-.47-2.09-1-3.13-1.44s-1.79-1.05-2.68-1.55a35.4,35.4,0,0,1-3.27-1.79c-1.47-.81-2.91-1.65-4.3-2.57a27.09,27.09,0,0,1-6.72-7.28A39.18,39.18,0,0,1,276.26,537.32Z"/><path class="cls-1" d="M322.1,509.81a4.4,4.4,0,0,1,3.44-1.45c6.34-.1,12.7-.05,19,0a29.1,29.1,0,0,1,14,3.52,20.07,20.07,0,0,1,5.73,5.88l.42.15a71.06,71.06,0,0,1,3,7.35c1.09,7.41.81,15.38-3.5,21.79a27,27,0,0,1-4.27,5v.37a20.22,20.22,0,0,0-3.35,2.21l-3.1,1.46c-1.33.48-2.67.93-4,1.44-3.2.24-6.41.25-9.62.21,0,7.17,0,14.34,0,21.52a9.81,9.81,0,0,1-1.09,4.52,99.31,99.31,0,0,1-13.25.22c-1.69.22-2.68-1.29-3.49-2.47.25-14.08,0-28.17.11-42.25-.08-9.82.35-19.65-.11-29.46m17.78,15.73c.06,5,0,10,0,15.07,2.26,0,4.54,0,6.81,0,2.32-1.35,3.33-3.87,4.23-6.25.3-3.26-.23-6.86-3.26-8.7C345.07,525.6,342.47,525.54,339.88,525.54Z"/><path class="cls-1" d="M374.1,508.63c6.51-.38,13.16-.79,19.63.25.29,1.08.61,2.17.94,3.27,3.36,21.06,7.31,42,11,63a27.42,27.42,0,0,0,1.2,6.2l-1.05,2.44a126.33,126.33,0,0,1-13.34.18c-1.3,0-2.25-1-3.31-1.5-.11-1.94-.26-3.88-.39-5.8a69.57,69.57,0,0,0-10.51,0c-.1,2-.21,4-.34,6l-1.09,0,.11,1.21a75.91,75.91,0,0,1-16-.24c-.56-4.85.84-9.6,1.73-14.31.24-1.7.42-3.41.64-5.1.59-1.94.77-3.95,1.35-5.88a37.34,37.34,0,0,1,1-5.95c1-7.08,2.81-14,3.74-21.09,2-7.45,2.3-15.27,4.69-22.62m8.67,44.76-.09-1.17a28.64,28.64,0,0,0-1.46,8.22l4.55,0c.05-.91.1-1.81.16-2.71l-.82-.14-.27-4.82-.59-.07c-.17-1.62-.4-3.24-.65-4.83C383.26,549.71,383,551.53,382.77,553.39Z"/><path class="cls-1" d="M411.07,514.08c8-8,22.17-9.06,30.65-1.18a11.4,11.4,0,0,1,3.85,4.36c.79,1,1.58,2,2.39,2.94,0,.26,0,.79.05,1.06,1.11,1.58,1.12,3.52,1.28,5.39l.67.06c-.09,2.93-.1,5.86,0,8.8l-1.15,2.1c-5.18,0-10.37,0-15.55-.06-1.19-3.15-.72-6.54-1.33-9.77-1.08-2.73-4.05-3.38-6.67-3.11-1.64,1.38-3.32,3.16-3.16,5.48-.14,10.37-.09,20.75,0,31.12a6.82,6.82,0,0,0,3.31,6.37l3.3.08a15.72,15.72,0,0,0,3.43-3.43c.12-2.36.18-4.73.22-7.09.21-.62.62-1.87.83-2.49,5.36-.09,10.72-.07,16.09,0l-.38,1.06,1.13,0a93.6,93.6,0,0,1-.23,10.59c-1.08,4-2.71,7.84-5.76,10.71l.11.86-.78-.17-1.08,1.19c-7,6.91-18.56,7.74-26.84,2.66a33.37,33.37,0,0,1-7.6-7.68,15.75,15.75,0,0,1-2-5l-.69-.07c-.89-11.81-.19-23.65-.32-35.48a67.68,67.68,0,0,1,.42-9.23c.82-1.93,1.68-3.84,2.56-5.74a23.37,23.37,0,0,1,3.31-3.85Z"/><path class="cls-1" d="M452,508.87c9.1-1.22,18.36-.25,27.52-.56,3.69.18,7.59-.6,11.11.81.8,5,.28,10.21.29,15.3l-2.1,1.13c-6.53-.07-13-.14-19.58.05.07,3.76.1,7.52,0,11.28,6.49.1,13,0,19.48.07l2.09,1.19c.31,5.12.23,10.25.06,15.38-1.45.29-2.88.6-4.3.93-3.56-1.13-7.19.5-10.77-.29a15.75,15.75,0,0,0-6.62.45c.17,4.07.13,8.14,0,12.22,6.47.09,13,.07,19.43,0l2.22,1.17c.18,5.2.21,10.4,0,15.6-8.06.93-16.2.22-24.29.44-4.78-.11-9.62.39-14.34-.56-.69-4.73-.28-9.51-.37-14.26C451.92,549.12,451.64,529,452,508.87Z"/><path class="cls-2" d="M112.2,105.52A13.29,13.29,0,0,1,124.47,98Q203,98,281.56,98a13.23,13.23,0,0,1,11.2,6.11c2.1,3.79,1.36,8.3,1.26,12.43-13.75,2.81-25.77,11.45-34.55,22.19-49.43.37-98.88.11-148.31.12-.06-8.15,0-16.31,0-24.46C111.15,111.42,111,108.33,112.2,105.52Z"/><path class="cls-2" d="M169.05,215.94c.72-6.67-.54-13.46.9-20.05,5.37.15,10.73,0,16.1.06.08,5.5-.07,11,.07,16.52-.16,4.84,4.83,8.52,9.39,8.27,5.19,0,10.38-.07,15.58,0,0,5.35.06,10.71,0,16.07-5.5.05-11-.06-16.52,0-4-.32-7.61,3-8.35,6.79-.28,5.82-.05,11.67,0,17.5-5.48.54-11-.36-16.52,0-.84-5.81,0-11.68-.46-17.51-.11-2.07-1.65-3.63-2.63-5.34-6.79-2.84-14.41-.86-21.55-1.41a12.41,12.41,0,0,0-1.09-4.8l1-.32c-1.33-3.59-.3-7.35,0-11,5.55,0,11.09,0,16.64-.07,1.2-.35,2.41-.68,3.62-1C166.48,218.44,167.76,217.19,169.05,215.94Z"/><path class="cls-2" d="M111.11,318.72c61-.09,122.05,0,183.08,0,0,6.9.12,13.81-.07,20.72,0,5.39-3,10.23-6.66,14a28.41,28.41,0,0,1-10.83,5.82c-6.21,2.07-12.46,4-18.7,6-10.46,3.42-20.82,7.19-31.46,10a100.18,100.18,0,0,1-46,.36c-1.33-.37-2.68-.7-4-1-9.37-2.8-18.59-6.08-27.93-9-3.31-1.27-6.82-1.94-10-3.45l-2-.46c-1-.37-2-.73-3-1.08-7.5-1.81-15.24-5.17-19.22-12.19C109.17,339.33,111.81,328.58,111.11,318.72Z"/><path class="cls-2" d="M382.68,552.22l.09,1.17c-.2,2.2-.49,4.39-.8,6.59l3.25,0c0-.59-.09-1.79-.11-2.39l.82.14c-.06.9-.11,1.8-.16,2.71l-4.55,0A28.64,28.64,0,0,1,382.68,552.22Z"/><path class="cls-3" d="M297.45,132.37A47.21,47.21,0,0,1,340,141.85c10.45,10.25,20.63,20.77,30.81,31.28,2,2.07,4.65,4,7.73,3.64,4.09-.6,6.66-4.17,9.44-6.87,8.73-8.63,16.77-17.93,25.63-26.44,8.61-7.93,20.16-12.83,31.93-12.65a46,46,0,0,1,32.65,12.9A51.92,51.92,0,0,1,480,217c-7.28,7.39-14.35,15-21.52,22.48,2.5,2.46,5.13,4.79,7.69,7.2l-3.88.14c-2.27,3.32-5.29,5.95-8.16,8.71-.09.63-.26,1.9-.35,2.53l-.62-.56c-2.17-2-4.35-4-6.6-5.94-8.93,8.73-17.16,18.14-26.07,26.89-14.52,14.42-28.17,29.69-42.9,43.9-7.87-7.79-15.18-16.13-23.09-23.9-12.76-12.59-24.78-25.9-37.49-38.54-9.38-9.31-18.14-19.21-27.55-28.48-6.65-7-14.06-13.41-19.63-21.38-3.73-5.28-5.76-11.49-7.66-17.6a110.65,110.65,0,0,1-.19-20c2.81-18.65,17.06-35.28,35.46-40M348.34,189a30.64,30.64,0,0,0-3.36,3.38c0,.28,0,.84,0,1.12-1.53,2.19-2.4,4.76-4,6.92,0,.27-.08.8-.11,1.06a33.72,33.72,0,0,0-3.19,6c-3,4.27-4,9.94-7.88,13.44-6.26-.3-12.53-.15-18.8-.11.06,5.37,0,10.74.06,16.11,8.15,0,16.31,0,24.48,0,2.69,0,5.64-1,7.15-3.34,2.79-4.15,4.33-9,7.26-13.12,0-.34-.08-1-.11-1.38l1.19-.27v-1.27a18.92,18.92,0,0,0,1.43-3.53c.82,0,1.64-.06,2.48-.09l0,2,.82.09c8.62,14.15,17.91,27.89,26.55,42,1.14,1.71,2.3,3.41,3.54,5.06l.26,1a12,12,0,0,0,8.44,5.86,19.79,19.79,0,0,0,6.3-3.05,51.19,51.19,0,0,0,3.34-7.49,44.68,44.68,0,0,0,2.06-5c.73-1.67,1.39-3.36,2-5.07a23.92,23.92,0,0,0,2-5c1.1-2.29,2.06-4.64,2.95-7,.52-1.24,1-2.49,1.58-3.72.52-1.55,1-3.09,1.54-4.64,12-.2,24-.17,35.94,0,1.07-5.43.51-11.06.35-16.56-14-.43-28.09-.12-42.12-.14-1.09.31-2.17.61-3.25.89-1,.83-2.06,1.67-3.07,2.53-.94,2.26-1.93,4.5-2.89,6.75-.59,1.67-1.3,3.3-2.05,4.91a35.09,35.09,0,0,1-2,5,34.49,34.49,0,0,1-2,5c-.59,1.63-1.13,3.27-1.57,4.94a3.31,3.31,0,0,1-2.84-1.93c-9.83-15.89-20.31-31.39-29.95-47.38C358.24,188.7,353,186.34,348.34,189Z"/><path class="cls-3" d="M327.38,326.18l.28.77c1.1,11.77.08,24.32-5.82,34.8,1.77-5.4,4-10.64,5-16.27C327.43,339.06,327.07,332.61,327.38,326.18Z"/><path class="cls-3" d="M209.34,538.61l1.63,0c-.08,14.44-.17,28.88,0,43.32l-.82-.13c.1-13.79-.07-27.58.08-41.37l-2,.11Z"/></g></g></svg>